<?xml version="1.0" encoding="UTF-8"?><svg xmlns="http://www.w3.org/2000/svg" xmlns:xlink="http://www.w3.org/1999/xlink" contentScriptType="application/ecmascript" contentStyleType="text/css" height="652px" preserveAspectRatio="none" style="width:320px;height:652px;" version="1.1" viewBox="0 0 320 652" width="320px" zoomAndPan="magnify">
    <defs>
        <filter height="300%" id="f18ycu157600ay" width="300%" x="-1" y="-1">
            <feGaussianBlur result="blurOut" stdDeviation="2.0"/>
            <feColorMatrix in="blurOut" result="blurOut2" type="matrix" values="0 0 0 0 0 0 0 0 0 0 0 0 0 0 0 0 0 0 .4 0"/>
            <feOffset dx="4.0" dy="4.0" in="blurOut2" result="blurOut3"/>
            <feBlend in="SourceGraphic" in2="blurOut3" mode="normal"/>
        </filter>
    </defs>
    <g>
        <!--class users-->
        <rect fill="#FEFECE" filter="url(#f18ycu157600ay)" height="158.6875" style="stroke: #A80036; stroke-width: 1.5;" width="124" x="97.5" y="8"/>
        <ellipse cx="139.5" cy="24" fill="#ADD1B2" rx="11" ry="11" style="stroke: #A80036; stroke-width: 1.0;"/>
        <path d="M142.2656,19.875 Q142.4219,19.6563 142.6094,19.5469 Q142.7969,19.4375 143.0156,19.4375 Q143.3906,19.4375 143.625,19.6953 Q143.8594,19.9531 143.8594,20.5625 L143.8594,22.0156 Q143.8594,22.625 143.625,22.8906 Q143.3906,23.1563 143.0156,23.1563 Q142.6719,23.1563 142.4688,22.9531 Q142.2656,22.7656 142.1563,22.25 Q142.1094,21.8906 141.9219,21.7031 Q141.5938,21.3281 140.9844,21.1094 Q140.375,20.8906 139.75,20.8906 Q138.9844,20.8906 138.3516,21.2188 Q137.7188,21.5469 137.2266,22.2969 Q136.7344,23.0469 136.7344,24.0781 L136.7344,25.1719 Q136.7344,26.4063 137.625,27.2266 Q138.5156,28.0469 140.1094,28.0469 Q141.0469,28.0469 141.7031,27.7969 Q142.0938,27.6406 142.5156,27.2031 Q142.7813,26.9375 142.9297,26.8594 Q143.0781,26.7813 143.2813,26.7813 Q143.6094,26.7813 143.8672,27.0391 Q144.125,27.2969 144.125,27.6406 Q144.125,27.9844 143.7813,28.3906 Q143.2813,28.9688 142.4844,29.2969 Q141.4063,29.75 140.1094,29.75 Q138.5938,29.75 137.3906,29.125 Q136.4063,28.625 135.7188,27.5547 Q135.0313,26.4844 135.0313,25.2031 L135.0313,24.0469 Q135.0313,22.7188 135.6484,21.5703 Q136.2656,20.4219 137.3594,19.8047 Q138.4531,19.1875 139.6875,19.1875 Q140.4219,19.1875 141.0703,19.3516 Q141.7188,19.5156 142.2656,19.875 Z "/>
        <text fill="#000000" font-family="sans-serif" font-size="12" lengthAdjust="spacingAndGlyphs" textLength="32" x="159.5" y="28.9102">users</text>
        <line style="stroke: #A80036; stroke-width: 1.5;" x1="98.5" x2="220.5" y1="40" y2="40"/>
        <line style="stroke: #A80036; stroke-width: 1.5;" x1="98.5" x2="220.5" y1="48" y2="48"/>
        <text fill="#000000" font-family="sans-serif" font-size="11" lengthAdjust="spacingAndGlyphs" textLength="39" x="103.5" y="63.4189">(field) id</text>
        <text fill="#000000" font-family="sans-serif" font-size="11" lengthAdjust="spacingAndGlyphs" textLength="57" x="103.5" y="77.2549">(field) name</text>
        <text fill="#000000" font-family="sans-serif" font-size="11" lengthAdjust="spacingAndGlyphs" textLength="90" x="103.5" y="91.0908">(field) email:unique</text>
        <text fill="#000000" font-family="sans-serif" font-size="11" lengthAdjust="spacingAndGlyphs" textLength="112" x="103.5" y="104.9268">(field) email_verified_at</text>
        <text fill="#000000" font-family="sans-serif" font-size="11" lengthAdjust="spacingAndGlyphs" textLength="81" x="103.5" y="118.7627">(field) password</text>
        <text fill="#000000" font-family="sans-serif" font-size="11" lengthAdjust="spacingAndGlyphs" textLength="79" x="103.5" y="132.5986">(field) userrol_id</text>
        <text fill="#000000" font-family="sans-serif" font-size="11" lengthAdjust="spacingAndGlyphs" textLength="85" x="103.5" y="146.4346">rememberToken()</text>
        <text fill="#000000" font-family="sans-serif" font-size="11" lengthAdjust="spacingAndGlyphs" textLength="62" x="103.5" y="160.2705">timestamps()</text>
        <!--class investment-->
        <rect fill="#FEFECE" filter="url(#f18ycu157600ay)" height="103.3438" style="stroke: #A80036; stroke-width: 1.5;" width="98" x="166.5" y="377"/>
        <ellipse cx="184.2" cy="393" fill="#ADD1B2" rx="11" ry="11" style="stroke: #A80036; stroke-width: 1.0;"/>
        <path d="M186.9656,388.875 Q187.1219,388.6563 187.3094,388.5469 Q187.4969,388.4375 187.7156,388.4375 Q188.0906,388.4375 188.325,388.6953 Q188.5594,388.9531 188.5594,389.5625 L188.5594,391.0156 Q188.5594,391.625 188.325,391.8906 Q188.0906,392.1563 187.7156,392.1563 Q187.3719,392.1563 187.1688,391.9531 Q186.9656,391.7656 186.8563,391.25 Q186.8094,390.8906 186.6219,390.7031 Q186.2938,390.3281 185.6844,390.1094 Q185.075,389.8906 184.45,389.8906 Q183.6844,389.8906 183.0516,390.2188 Q182.4188,390.5469 181.9266,391.2969 Q181.4344,392.0469 181.4344,393.0781 L181.4344,394.1719 Q181.4344,395.4063 182.325,396.2266 Q183.2156,397.0469 184.8094,397.0469 Q185.7469,397.0469 186.4031,396.7969 Q186.7938,396.6406 187.2156,396.2031 Q187.4813,395.9375 187.6297,395.8594 Q187.7781,395.7813 187.9813,395.7813 Q188.3094,395.7813 188.5672,396.0391 Q188.825,396.2969 188.825,396.6406 Q188.825,396.9844 188.4813,397.3906 Q187.9813,397.9688 187.1844,398.2969 Q186.1063,398.75 184.8094,398.75 Q183.2938,398.75 182.0906,398.125 Q181.1063,397.625 180.4188,396.5547 Q179.7313,395.4844 179.7313,394.2031 L179.7313,393.0469 Q179.7313,391.7188 180.3484,390.5703 Q180.9656,389.4219 182.0594,388.8047 Q183.1531,388.1875 184.3875,388.1875 Q185.1219,388.1875 185.7703,388.3516 Q186.4188,388.5156 186.9656,388.875 Z "/>
        <text fill="#000000" font-family="sans-serif" font-size="12" lengthAdjust="spacingAndGlyphs" textLength="60" x="198.8" y="397.9102">investment</text>
        <line style="stroke: #A80036; stroke-width: 1.5;" x1="167.5" x2="263.5" y1="409" y2="409"/>
        <line style="stroke: #A80036; stroke-width: 1.5;" x1="167.5" x2="263.5" y1="417" y2="417"/>
        <text fill="#000000" font-family="sans-serif" font-size="11" lengthAdjust="spacingAndGlyphs" textLength="39" x="172.5" y="432.4189">(field) id</text>
        <text fill="#000000" font-family="sans-serif" font-size="11" lengthAdjust="spacingAndGlyphs" textLength="84" x="172.5" y="446.2549">(field) invester_id</text>
        <text fill="#000000" font-family="sans-serif" font-size="11" lengthAdjust="spacingAndGlyphs" textLength="86" x="172.5" y="460.0908">(field) recipient_id</text>
        <text fill="#000000" font-family="sans-serif" font-size="11" lengthAdjust="spacingAndGlyphs" textLength="62" x="172.5" y="473.9268">timestamps()</text>
        <!--class feedback-->
        <rect fill="#FEFECE" filter="url(#f18ycu157600ay)" height="103.3438" style="stroke: #A80036; stroke-width: 1.5;" width="109" x="161" y="540"/>
        <ellipse cx="188.15" cy="556" fill="#ADD1B2" rx="11" ry="11" style="stroke: #A80036; stroke-width: 1.0;"/>
        <path d="M190.9156,551.875 Q191.0719,551.6563 191.2594,551.5469 Q191.4469,551.4375 191.6656,551.4375 Q192.0406,551.4375 192.275,551.6953 Q192.5094,551.9531 192.5094,552.5625 L192.5094,554.0156 Q192.5094,554.625 192.275,554.8906 Q192.0406,555.1563 191.6656,555.1563 Q191.3219,555.1563 191.1188,554.9531 Q190.9156,554.7656 190.8063,554.25 Q190.7594,553.8906 190.5719,553.7031 Q190.2438,553.3281 189.6344,553.1094 Q189.025,552.8906 188.4,552.8906 Q187.6344,552.8906 187.0016,553.2188 Q186.3688,553.5469 185.8766,554.2969 Q185.3844,555.0469 185.3844,556.0781 L185.3844,557.1719 Q185.3844,558.4063 186.275,559.2266 Q187.1656,560.0469 188.7594,560.0469 Q189.6969,560.0469 190.3531,559.7969 Q190.7438,559.6406 191.1656,559.2031 Q191.4313,558.9375 191.5797,558.8594 Q191.7281,558.7813 191.9313,558.7813 Q192.2594,558.7813 192.5172,559.0391 Q192.775,559.2969 192.775,559.6406 Q192.775,559.9844 192.4313,560.3906 Q191.9313,560.9688 191.1344,561.2969 Q190.0563,561.75 188.7594,561.75 Q187.2438,561.75 186.0406,561.125 Q185.0563,560.625 184.3688,559.5547 Q183.6813,558.4844 183.6813,557.2031 L183.6813,556.0469 Q183.6813,554.7188 184.2984,553.5703 Q184.9156,552.4219 186.0094,551.8047 Q187.1031,551.1875 188.3375,551.1875 Q189.0719,551.1875 189.7203,551.3516 Q190.3688,551.5156 190.9156,551.875 Z "/>
        <text fill="#000000" font-family="sans-serif" font-size="12" lengthAdjust="spacingAndGlyphs" textLength="50" x="204.85" y="560.9102">feedback</text>
        <line style="stroke: #A80036; stroke-width: 1.5;" x1="162" x2="269" y1="572" y2="572"/>
        <line style="stroke: #A80036; stroke-width: 1.5;" x1="162" x2="269" y1="580" y2="580"/>
        <text fill="#000000" font-family="sans-serif" font-size="11" lengthAdjust="spacingAndGlyphs" textLength="39" x="167" y="595.4189">(field) id</text>
        <text fill="#000000" font-family="sans-serif" font-size="11" lengthAdjust="spacingAndGlyphs" textLength="97" x="167" y="609.2549">(field) investment_id</text>
        <text fill="#000000" font-family="sans-serif" font-size="11" lengthAdjust="spacingAndGlyphs" textLength="67" x="167" y="623.0908">(field) user_id</text>
        <text fill="#000000" font-family="sans-serif" font-size="11" lengthAdjust="spacingAndGlyphs" textLength="62" x="167" y="636.9268">timestamps()</text>
        <!--class userrol-->
        <rect fill="#FEFECE" filter="url(#f18ycu157600ay)" height="89.5078" style="stroke: #A80036; stroke-width: 1.5;" width="81" x="6" y="227"/>
        <ellipse cx="25.5" cy="243" fill="#ADD1B2" rx="11" ry="11" style="stroke: #A80036; stroke-width: 1.0;"/>
        <path d="M28.2656,238.875 Q28.4219,238.6563 28.6094,238.5469 Q28.7969,238.4375 29.0156,238.4375 Q29.3906,238.4375 29.625,238.6953 Q29.8594,238.9531 29.8594,239.5625 L29.8594,241.0156 Q29.8594,241.625 29.625,241.8906 Q29.3906,242.1563 29.0156,242.1563 Q28.6719,242.1563 28.4688,241.9531 Q28.2656,241.7656 28.1563,241.25 Q28.1094,240.8906 27.9219,240.7031 Q27.5938,240.3281 26.9844,240.1094 Q26.375,239.8906 25.75,239.8906 Q24.9844,239.8906 24.3516,240.2188 Q23.7188,240.5469 23.2266,241.2969 Q22.7344,242.0469 22.7344,243.0781 L22.7344,244.1719 Q22.7344,245.4063 23.625,246.2266 Q24.5156,247.0469 26.1094,247.0469 Q27.0469,247.0469 27.7031,246.7969 Q28.0938,246.6406 28.5156,246.2031 Q28.7813,245.9375 28.9297,245.8594 Q29.0781,245.7813 29.2813,245.7813 Q29.6094,245.7813 29.8672,246.0391 Q30.125,246.2969 30.125,246.6406 Q30.125,246.9844 29.7813,247.3906 Q29.2813,247.9688 28.4844,248.2969 Q27.4063,248.75 26.1094,248.75 Q24.5938,248.75 23.3906,248.125 Q22.4063,247.625 21.7188,246.5547 Q21.0313,245.4844 21.0313,244.2031 L21.0313,243.0469 Q21.0313,241.7188 21.6484,240.5703 Q22.2656,239.4219 23.3594,238.8047 Q24.4531,238.1875 25.6875,238.1875 Q26.4219,238.1875 27.0703,238.3516 Q27.7188,238.5156 28.2656,238.875 Z "/>
        <text fill="#000000" font-family="sans-serif" font-size="12" lengthAdjust="spacingAndGlyphs" textLength="39" x="40.5" y="247.9102">userrol</text>
        <line style="stroke: #A80036; stroke-width: 1.5;" x1="7" x2="86" y1="259" y2="259"/>
        <line style="stroke: #A80036; stroke-width: 1.5;" x1="7" x2="86" y1="267" y2="267"/>
        <text fill="#000000" font-family="sans-serif" font-size="11" lengthAdjust="spacingAndGlyphs" textLength="39" x="12" y="282.4189">(field) id</text>
        <text fill="#000000" font-family="sans-serif" font-size="11" lengthAdjust="spacingAndGlyphs" textLength="69" x="12" y="296.2549">(field) rolname</text>
        <text fill="#000000" font-family="sans-serif" font-size="11" lengthAdjust="spacingAndGlyphs" textLength="62" x="12" y="310.0908">timestamps()</text>
        <!--class invester-->
        <rect fill="#FEFECE" filter="url(#f18ycu157600ay)" height="75.6719" style="stroke: #A80036; stroke-width: 1.5;" width="75" x="122" y="234"/>
        <ellipse cx="137" cy="250" fill="#ADD1B2" rx="11" ry="11" style="stroke: #A80036; stroke-width: 1.0;"/>
        <path d="M139.7656,245.875 Q139.9219,245.6563 140.1094,245.5469 Q140.2969,245.4375 140.5156,245.4375 Q140.8906,245.4375 141.125,245.6953 Q141.3594,245.9531 141.3594,246.5625 L141.3594,248.0156 Q141.3594,248.625 141.125,248.8906 Q140.8906,249.1563 140.5156,249.1563 Q140.1719,249.1563 139.9688,248.9531 Q139.7656,248.7656 139.6563,248.25 Q139.6094,247.8906 139.4219,247.7031 Q139.0938,247.3281 138.4844,247.1094 Q137.875,246.8906 137.25,246.8906 Q136.4844,246.8906 135.8516,247.2188 Q135.2188,247.5469 134.7266,248.2969 Q134.2344,249.0469 134.2344,250.0781 L134.2344,251.1719 Q134.2344,252.4063 135.125,253.2266 Q136.0156,254.0469 137.6094,254.0469 Q138.5469,254.0469 139.2031,253.7969 Q139.5938,253.6406 140.0156,253.2031 Q140.2813,252.9375 140.4297,252.8594 Q140.5781,252.7813 140.7813,252.7813 Q141.1094,252.7813 141.3672,253.0391 Q141.625,253.2969 141.625,253.6406 Q141.625,253.9844 141.2813,254.3906 Q140.7813,254.9688 139.9844,255.2969 Q138.9063,255.75 137.6094,255.75 Q136.0938,255.75 134.8906,255.125 Q133.9063,254.625 133.2188,253.5547 Q132.5313,252.4844 132.5313,251.2031 L132.5313,250.0469 Q132.5313,248.7188 133.1484,247.5703 Q133.7656,246.4219 134.8594,245.8047 Q135.9531,245.1875 137.1875,245.1875 Q137.9219,245.1875 138.5703,245.3516 Q139.2188,245.5156 139.7656,245.875 Z "/>
        <text fill="#000000" font-family="sans-serif" font-size="12" lengthAdjust="spacingAndGlyphs" textLength="43" x="151" y="254.9102">invester</text>
        <line style="stroke: #A80036; stroke-width: 1.5;" x1="123" x2="196" y1="266" y2="266"/>
        <line style="stroke: #A80036; stroke-width: 1.5;" x1="123" x2="196" y1="274" y2="274"/>
        <text fill="#000000" font-family="sans-serif" font-size="11" lengthAdjust="spacingAndGlyphs" textLength="39" x="128" y="289.4189">(field) id</text>
        <text fill="#000000" font-family="sans-serif" font-size="11" lengthAdjust="spacingAndGlyphs" textLength="62" x="128" y="303.2549">timestamps()</text>
        <!--class recipient-->
        <rect fill="#FEFECE" filter="url(#f18ycu157600ay)" height="75.6719" style="stroke: #A80036; stroke-width: 1.5;" width="79" x="232" y="234"/>
        <ellipse cx="247" cy="250" fill="#ADD1B2" rx="11" ry="11" style="stroke: #A80036; stroke-width: 1.0;"/>
        <path d="M249.7656,245.875 Q249.9219,245.6563 250.1094,245.5469 Q250.2969,245.4375 250.5156,245.4375 Q250.8906,245.4375 251.125,245.6953 Q251.3594,245.9531 251.3594,246.5625 L251.3594,248.0156 Q251.3594,248.625 251.125,248.8906 Q250.8906,249.1563 250.5156,249.1563 Q250.1719,249.1563 249.9688,248.9531 Q249.7656,248.7656 249.6563,248.25 Q249.6094,247.8906 249.4219,247.7031 Q249.0938,247.3281 248.4844,247.1094 Q247.875,246.8906 247.25,246.8906 Q246.4844,246.8906 245.8516,247.2188 Q245.2188,247.5469 244.7266,248.2969 Q244.2344,249.0469 244.2344,250.0781 L244.2344,251.1719 Q244.2344,252.4063 245.125,253.2266 Q246.0156,254.0469 247.6094,254.0469 Q248.5469,254.0469 249.2031,253.7969 Q249.5938,253.6406 250.0156,253.2031 Q250.2813,252.9375 250.4297,252.8594 Q250.5781,252.7813 250.7813,252.7813 Q251.1094,252.7813 251.3672,253.0391 Q251.625,253.2969 251.625,253.6406 Q251.625,253.9844 251.2813,254.3906 Q250.7813,254.9688 249.9844,255.2969 Q248.9063,255.75 247.6094,255.75 Q246.0938,255.75 244.8906,255.125 Q243.9063,254.625 243.2188,253.5547 Q242.5313,252.4844 242.5313,251.2031 L242.5313,250.0469 Q242.5313,248.7188 243.1484,247.5703 Q243.7656,246.4219 244.8594,245.8047 Q245.9531,245.1875 247.1875,245.1875 Q247.9219,245.1875 248.5703,245.3516 Q249.2188,245.5156 249.7656,245.875 Z "/>
        <text fill="#000000" font-family="sans-serif" font-size="12" lengthAdjust="spacingAndGlyphs" textLength="47" x="261" y="254.9102">recipient</text>
        <line style="stroke: #A80036; stroke-width: 1.5;" x1="233" x2="310" y1="266" y2="266"/>
        <line style="stroke: #A80036; stroke-width: 1.5;" x1="233" x2="310" y1="274" y2="274"/>
        <text fill="#000000" font-family="sans-serif" font-size="11" lengthAdjust="spacingAndGlyphs" textLength="39" x="238" y="289.4189">(field) id</text>
        <text fill="#000000" font-family="sans-serif" font-size="11" lengthAdjust="spacingAndGlyphs" textLength="62" x="238" y="303.2549">timestamps()</text>
        <path d="M207.811,167.221 C222.02,190.374 236.902,214.624 248.704,233.855 " fill="none" style="stroke: #A80036; stroke-width: 1.0;"/>
        <path d="M159.5,167.221 C159.5,190.374 159.5,214.624 159.5,233.855 " fill="none" style="stroke: #A80036; stroke-width: 1.0;"/>
        <path d="M110.758,167.221 C98.0945,187.673 84.9011,208.981 73.7877,226.929 " fill="none" style="stroke: #A80036; stroke-width: 1.0;"/>
        <path d="M172.913,310.007 C180.162,330.004 189.219,354.992 197.115,376.777 " fill="none" style="stroke: #A80036; stroke-width: 1.0;"/>
        <text fill="#000000" font-family="sans-serif" font-size="13" lengthAdjust="spacingAndGlyphs" textLength="7" x="167.5548" y="331.1783">1</text>
        <text fill="#000000" font-family="sans-serif" font-size="13" lengthAdjust="spacingAndGlyphs" textLength="7" x="187.1742" y="366.2474">1</text>
        <path d="M258.087,310.007 C250.838,330.004 241.781,354.992 233.885,376.777 " fill="none" style="stroke: #A80036; stroke-width: 1.0;"/>
        <text fill="#000000" font-family="sans-serif" font-size="13" lengthAdjust="spacingAndGlyphs" textLength="7" x="248.2858" y="331.1783">1</text>
        <text fill="#000000" font-family="sans-serif" font-size="13" lengthAdjust="spacingAndGlyphs" textLength="7" x="228.8852" y="366.2474">1</text>
        <path d="M215.5,480.441 C215.5,499.419 215.5,520.942 215.5,539.89 " fill="none" style="stroke: #A80036; stroke-width: 1.0;"/>
        <text fill="#000000" font-family="sans-serif" font-size="13" lengthAdjust="spacingAndGlyphs" textLength="7" x="208.0297" y="501.9912">1</text>
        <text fill="#000000" font-family="sans-serif" font-size="13" lengthAdjust="spacingAndGlyphs" textLength="5" x="210.1484" y="529.003">*</text>
        <!--
@startuml
class users{
   (field) id
   (field) name
   (field) email:unique
   (field) email_verified_at
   (field) password
   (field) userrol_id
    rememberToken()
    timestamps()
}
class investment{
    (field) id
    (field) invester_id
    (field) recipient_id
    timestamps()
}
class feedback{
    (field) id
    (field) investment_id
    (field) user_id
    timestamps()
}
class userrol{
    (field) id
    (field) rolname
    timestamps()
}
class invester{
   (field) id
    timestamps()
}
class recipient{
   (field) id
    timestamps()
}
users - - recipient
users - - invester
users - - userrol
invester "1" - - "1" investment
recipient "1" - - "1" investment
investment "1" - - "*" feedback

@enduml

PlantUML version 2017.11(Wed Apr 19 18:18:59 CEST 2017)
(GPL source distribution)
Java Runtime: Java(TM) SE Runtime Environment
JVM: Java HotSpot(TM) 64-Bit Server VM
Java Version: 1.8.0_112-b15
Operating System: Windows 10
OS Version: 10.0
Default Encoding: Cp1252
Language: nl
Country: NL
-->
    </g>
</svg>
